<svg width="176" height="32" viewBox="0 0 176 32" fill="none" xmlns="http://www.w3.org/2000/svg">
<path d="M7.00003 17.5C5.40001 16.7 1.00002 14.5 1.00003 11C2.00001 8 3.20002 9.8 8.00002 7C14 3.5 10.5001 13.5 15.5001 7C20.5001 0.5 24.5001 7 25.5001 8C26.5001 9 32.5001 4.5 37.0001 2C41.5001 -0.5 51.0001 8.5 52.5001 9.5C53.7001 10.3 52.0001 3.5 55.5001 3C57.5001 3 58.6001 8.3 59.0001 9.5C59.5001 11 61.5001 10 63.0001 7.5C64.2001 5.5 63.5 4.5 66.5001 5.5C68.5 6.5 68.3001 8.3 69.5001 7.5C71.0001 6.5 75.0001 4 77.5001 2.5C80.0001 1 86.0001 8.5 86.5001 9C87.0001 9.5 89.0001 8 90.0001 8C91.0001 8 95.0001 11.5 95.5001 12.5C96.0001 13.5 97.0001 12 100.5 9C103.3 6.6 104.667 8.66667 105 10C105.333 11 106.2 13.2 107 14C108 15 110.5 10 112.5 9C114.5 8 115.5 10.5 116.5 11.5C117.5 12.5 119 7.5 121 7.5C123.062 7.5 124 9 125.5 10.5C127 12 127.5 7.5 129.5 7.5C131.5 7.5 131.754 7.5071 133.5 11C134 12 135.5 1.5 140.5 0.999997C145.5 0.499997 147 11.5 149.5 12C152 12.5 152 7 153 7C154 7 156 9.5 157.5 11C159 12.5 161 6 162.5 5.5C164 5 165 8.5 166.5 9C168 9.5 169 6.5 170.5 5.5C172 4.5 176 21.5 175 24C174 26.5 171.5 23 169.5 21.5C167.5 20 167 25 165 25.5C163 26 161.5 21.5 159.5 21C157.5 20.5 155.5 25.5 153 28C150.5 30.5 141.5 21 140.5 20.5C139.5 20 138.5 22 137.5 24C136.5 26 129.5 19 127 17C124.5 15 120.5 24 118 20C115.5 16 114.5 28 110 31C105.5 34 102 22.5 100.5 22C99.0001 21.5 99.0001 22.5 96.5001 25C94.0001 27.5 91.5001 21.5 90.0001 20C88.5001 18.5 87.5001 23.5 84.0001 26C80.5001 28.5 75.0001 18.5 73.0001 17C71.0001 15.5 69.5001 21.5 67.0001 22.5C65.0001 23.3 63.1667 18.8333 62.5001 16.5C62.0001 15 61.0001 17 59.0001 18C57.0001 19 57.0001 17.0616 57.0001 15C57.0001 13 54.5 14.5 53.5 16.5C53.0528 17.3944 52.5001 19 50.5001 19.5C48.5001 20 45.0001 17.5 43.0001 16.5C41.4001 15.7 40.0001 17.1667 39.5001 18C39.0001 19 37.5001 21.8 35.5001 25C33.0001 29 28.832 26.248 28 25C27 23.5 26.1742 19.1741 25.5001 18.5C25.1001 18.1 24.2283 17.7428 23.5 17.5C22 17 20 20 19.5001 20.5C19.1465 20.8536 18.0001 21.5 16.5001 20.5C15.0001 19.5 14.0001 13.5 11.5001 16.5C9.00006 19.5 9.00006 18.5 7.00006 17.5L7.00003 17.5Z" stroke="black"/>
</svg>
