<svg width="615" height="520" viewBox="0 0 615 520" fill="none" xmlns="http://www.w3.org/2000/svg">
<g clip-path="url(#clip0)">
<path d="M615 528.368L174.754 535L0 504.049H272.815L615 528.368Z" fill="#E6E6E6"/>
<path d="M124.584 507.728C124.584 507.728 125.614 486.158 146.731 488.665Z" fill="#3F3D56"/>
<path d="M118.617 487.201C124.454 487.201 129.186 482.473 129.186 476.639C129.186 470.806 124.454 466.078 118.617 466.078C112.779 466.078 108.047 470.806 108.047 476.639C108.047 482.473 112.779 487.201 118.617 487.201Z" fill="black"/>
<path d="M119.88 494.425H116.897V515.295H119.88V494.425Z" fill="#3F3D56"/>
<path d="M472.651 511.412C472.651 511.412 473.681 489.842 494.799 492.35Z" fill="#3F3D56"/>
<path d="M466.684 490.886C472.521 490.886 477.253 486.157 477.253 480.324C477.253 474.491 472.521 469.762 466.684 469.762C460.847 469.762 456.115 474.491 456.115 480.324C456.115 486.157 460.847 490.886 466.684 490.886Z" fill="black"/>
<path d="M467.948 498.11H464.964V518.979H467.948V498.11Z" fill="#3F3D56"/>
<path d="M523.534 515.097C523.534 515.097 524.564 493.527 545.682 496.034Z" fill="#3F3D56"/>
<path d="M517.567 494.57C523.404 494.57 528.136 489.842 528.136 484.009C528.136 478.175 523.404 473.447 517.567 473.447C511.729 473.447 506.997 478.175 506.997 484.009C506.997 489.842 511.729 494.57 517.567 494.57Z" fill="black"/>
<path d="M518.83 501.794H515.847V522.664H518.83V501.794Z" fill="#3F3D56"/>
<path d="M207.913 497.411C207.913 497.411 208.943 475.841 230.061 478.348Z" fill="#3F3D56"/>
<path d="M201.946 476.885C207.784 476.885 212.516 472.156 212.516 466.323C212.516 460.489 207.784 455.761 201.946 455.761C196.109 455.761 191.377 460.489 191.377 466.323C191.377 472.156 196.109 476.885 201.946 476.885Z" fill="black"/>
<path d="M203.21 484.108H200.227V504.978H203.21V484.108Z" fill="#3F3D56"/>
<path d="M50.8405 501.096C50.8405 501.096 51.8706 479.526 72.9883 482.033Z" fill="#3F3D56"/>
<path d="M44.8735 480.569C50.7108 480.569 55.4428 475.84 55.4428 470.007C55.4428 464.174 50.7108 459.445 44.8735 459.445C39.0363 459.445 34.3042 464.174 34.3042 470.007C34.3042 475.84 39.0363 480.569 44.8735 480.569Z" fill="black"/>
<path d="M46.1372 487.793H43.1538V508.662H46.1372V487.793Z" fill="#3F3D56"/>
<path d="M306.385 463.614C369.983 463.614 421.539 412.094 421.539 348.541C421.539 284.987 369.983 233.467 306.385 233.467C242.788 233.467 191.231 284.987 191.231 348.541C191.231 412.094 242.788 463.614 306.385 463.614Z" fill="#3F3D56"/>
<path d="M233.889 357.778C236.749 354.356 240.326 351.604 244.367 349.716C248.408 347.827 252.814 346.848 257.275 346.848C261.737 346.848 266.143 347.827 270.184 349.716C274.225 351.604 277.802 354.356 280.662 357.778C285.556 353.109 288.938 347.083 290.373 340.476C291.809 333.869 291.231 326.984 288.714 320.709C286.198 314.433 281.858 309.054 276.255 305.265C270.652 301.477 264.041 299.452 257.275 299.452C250.51 299.452 243.899 301.477 238.296 305.265C232.693 309.054 228.353 314.433 225.837 320.709C223.32 326.984 222.742 333.869 224.178 340.476C225.613 347.083 228.995 353.109 233.889 357.778V357.778Z" fill="white"/>
<path d="M325.334 357.778C328.194 354.356 331.771 351.604 335.812 349.716C339.853 347.827 344.26 346.848 348.721 346.848C353.182 346.848 357.589 347.827 361.63 349.716C365.671 351.604 369.248 354.356 372.108 357.778C377.002 353.109 380.384 347.083 381.819 340.476C383.254 333.87 382.676 326.984 380.16 320.709C377.644 314.433 373.304 309.054 367.701 305.265C362.097 301.477 355.487 299.452 348.721 299.452C341.956 299.452 335.345 301.477 329.742 305.265C324.138 309.054 319.799 314.433 317.282 320.709C314.766 326.984 314.188 333.87 315.623 340.476C317.058 347.083 320.441 353.109 325.334 357.778Z" fill="white"/>
<path d="M245.722 333.415C252.156 333.415 257.372 328.202 257.372 321.772C257.372 315.342 252.156 310.13 245.722 310.13C239.287 310.13 234.071 315.342 234.071 321.772C234.071 328.202 239.287 333.415 245.722 333.415Z" fill="#3F3D56"/>
<path d="M337.164 333.415C343.599 333.415 348.815 328.202 348.815 321.772C348.815 315.342 343.599 310.13 337.164 310.13C330.73 310.13 325.514 315.342 325.514 321.772C325.514 328.202 330.73 333.415 337.164 333.415Z" fill="#3F3D56"/>
<path d="M223.407 390.847C230.889 390.847 236.954 384.786 236.954 377.309C236.954 369.832 230.889 363.771 223.407 363.771C215.925 363.771 209.859 369.832 209.859 377.309C209.859 384.786 215.925 390.847 223.407 390.847Z" fill="#7BF7FF"/>
<path d="M379.203 390.847C386.685 390.847 392.751 384.786 392.751 377.309C392.751 369.832 386.685 363.771 379.203 363.771C371.721 363.771 365.656 369.832 365.656 377.309C365.656 384.786 371.721 390.847 379.203 390.847Z" fill="#7BF7FF"/>
<path d="M301.305 350.232L291.144 394.231L308.078 377.309L301.305 350.232Z" fill="#7BF7FF"/>
<path d="M353.513 519.458L341.977 509.783L342.246 519.458H338.663L338.377 509.228L322.802 519.458H316.282L338.261 505.022L337.409 474.709L336.773 451.815L340.347 451.716L340.992 474.709L341.843 504.995L359.083 519.458H353.513Z" fill="#3F3D56"/>
<path d="M299.319 519.458L287.783 509.783L288.052 519.458H284.479L284.192 509.228L268.617 519.458H262.097L284.066 505.022L283.216 474.709L282.58 451.815L286.162 451.716L286.807 474.709L287.649 504.995L304.89 519.458H299.319Z" fill="#3F3D56"/>
<path d="M308.079 225.006C304.919 225.006 302.132 227.459 300.268 231.226C298.625 225.561 295.174 221.622 291.144 221.622C290.87 221.649 290.599 221.694 290.331 221.758C288.782 215.71 285.181 211.468 280.984 211.468C275.372 211.468 270.823 219.045 270.823 228.391C270.823 237.737 275.372 245.313 280.984 245.313C281.257 245.286 281.529 245.24 281.797 245.177C283.346 251.225 286.947 255.467 291.144 255.467C294.304 255.467 297.091 253.014 298.955 249.247C300.597 254.912 304.048 258.851 308.079 258.851C313.69 258.851 318.239 251.275 318.239 241.929C318.239 232.583 313.69 225.006 308.079 225.006Z" fill="#3F3D56"/>
<path d="M198.299 392.148C193.851 392.148 189.447 391.273 185.338 389.572C181.228 387.871 177.495 385.378 174.35 382.235C171.205 379.092 168.71 375.361 167.008 371.255C165.306 367.149 164.43 362.748 164.43 358.303V341.381C164.43 332.404 167.998 323.796 174.35 317.449C180.701 311.101 189.316 307.536 198.299 307.536V307.536V392.148Z" fill="#7BF7FF"/>
<path d="M414.472 307.536C418.92 307.536 423.324 308.411 427.433 310.112C431.542 311.813 435.276 314.306 438.421 317.449C441.566 320.591 444.06 324.322 445.763 328.429C447.465 332.535 448.341 336.936 448.341 341.381V358.303C448.341 362.748 447.465 367.149 445.763 371.255C444.06 375.361 441.566 379.092 438.421 382.235C435.276 385.378 431.542 387.871 427.433 389.572C423.324 391.273 418.92 392.148 414.472 392.148V392.148V307.536H414.472Z" fill="#7BF7FF"/>
<path d="M432.22 344.04H426.846C426.846 275.937 371.401 220.531 303.251 220.531C235.1 220.531 179.655 275.937 179.655 344.04H174.282C174.282 272.976 232.137 215.161 303.251 215.161C374.365 215.161 432.22 272.976 432.22 344.04Z" fill="#7BF7FF"/>
<path d="M118.839 240.542L118.84 240.54L116.315 239.489L105.663 234.989L101.845 233.377L101.552 234.116L96.4228 247.057L110.857 253.162L110.933 253.231L109.96 255.523C109.827 255.732 109.714 255.954 109.621 256.184C108.94 257.903 110.227 259.614 111.443 260.095C112.66 260.576 114.198 259.573 114.88 257.854C115.552 256.158 114.895 254.004 113.71 253.483L113.711 253.481L111.186 252.43L102.55 249.076L107.484 236.625L106.753 236.336L101.817 248.791L100.749 248.376L105.704 235.872L105.835 235.927L115.986 240.221L116.062 240.29L115.089 242.582C114.956 242.791 114.843 243.013 114.75 243.243C114.069 244.962 115.356 246.672 116.572 247.154C117.789 247.635 119.327 246.632 120.009 244.913C120.681 243.217 120.024 241.063 118.839 240.542Z" fill="#3F3D56"/>
<path d="M168.799 272.313C163.559 269.319 164.608 262.749 164.608 262.749C164.476 258.481 160.947 259.085 160.947 259.085L159.663 259.378C159.067 259.101 158.41 258.98 157.754 259.025L155.8 259.354C160.248 260.398 159.883 264.117 159.883 264.117L160.506 268.465L148.85 263.766L150.188 260.613C150.373 260.322 150.531 260.014 150.66 259.694C151.606 257.306 149.819 254.931 148.129 254.262C146.439 253.593 144.302 254.987 143.356 257.375C142.422 259.73 143.335 262.722 144.981 263.445L144.98 263.448L148.486 264.907L148.512 264.825L168.799 272.313ZM162.88 264.673L163.254 268.835C161.934 266.984 161.314 264.726 161.504 262.461C161.473 261.656 161.201 260.878 160.724 260.229C161.458 260.699 162.048 261.363 162.429 262.147C162.809 262.931 162.966 263.805 162.88 264.673V264.673Z" fill="#7BF7FF"/>
<path d="M79.8866 210.763L79.888 210.76L76.3817 209.301L61.727 203.608L65.4257 200.32C66.1493 199.356 67.2178 198.709 68.4078 198.514C69.5978 198.319 70.8171 198.591 71.8106 199.274L70.6628 197.57C70.6628 197.57 68.505 194.715 65.4846 197.735C65.4846 197.735 61.7473 203.241 55.877 201.837L75.9253 210.317L76.0305 210.412L74.6796 213.595C74.4946 213.887 74.3368 214.194 74.2082 214.514C73.2618 216.902 75.0492 219.277 76.7389 219.946C78.4287 220.615 80.5657 219.221 81.5121 216.833C82.4455 214.478 81.5332 211.486 79.8866 210.763Z" fill="#3F3D56"/>
<path d="M133.538 192.131L132.187 195.314C132.002 195.605 131.844 195.913 131.715 196.233C130.769 198.621 132.556 200.996 134.246 201.665C135.936 202.333 138.073 200.94 139.019 198.552C139.953 196.197 139.04 193.204 137.394 192.481L137.395 192.479L133.889 191.019L121.894 186.36L128.747 169.067L127.732 168.665L120.875 185.964L119.392 185.388L126.275 168.021L126.456 168.098L140.556 174.062L140.661 174.157L139.31 177.34C139.125 177.631 138.968 177.939 138.839 178.259C137.893 180.647 139.68 183.022 141.37 183.691C143.059 184.359 145.196 182.966 146.143 180.578C147.076 178.223 146.164 175.23 144.517 174.507L144.519 174.505L141.012 173.045L126.683 166.992L126.683 166.992L126.218 166.796L120.915 164.555L113.384 183.556L133.432 192.036L133.538 192.131Z" fill="#3F3D56"/>
<path d="M70.0044 94.8201L70.0068 94.8153L63.9708 92.3034L38.7436 82.5035L45.1107 76.8427C45.1107 76.8427 49.346 70.9704 56.102 75.0435L54.1263 72.1089C54.1263 72.1089 50.4116 67.1946 45.2121 72.3941C45.2121 72.3941 38.7787 81.8717 28.6733 79.4558L63.1851 94.0527L63.3663 94.2167L61.0407 99.6964C60.7223 100.198 60.4507 100.727 60.2292 101.278C58.6001 105.389 61.677 109.477 64.5858 110.629C67.4945 111.78 71.1733 109.381 72.8025 105.27C74.4094 101.216 72.8389 96.0648 70.0044 94.8201Z" fill="#3F3D56"/>
<path d="M88.5284 177.139C76.0001 169.981 78.5072 154.274 78.5072 154.274C78.192 144.069 69.7552 145.514 69.7552 145.514L66.6847 146.214C65.2583 145.552 63.6876 145.262 62.1189 145.37L57.448 146.156C68.0837 148.653 67.2099 157.544 67.2099 157.544L68.7 167.94L40.8315 156.705L44.0312 149.166C44.4735 148.47 44.8507 147.734 45.1583 146.969C47.4211 141.26 43.1475 135.581 39.1075 133.982C35.0675 132.383 29.9581 135.715 27.6953 141.424C25.4634 147.056 27.6446 154.21 31.5815 155.938L31.5782 155.945L39.9616 159.434L40.0241 159.237L88.5284 177.139ZM74.3763 158.873L75.273 168.858C70.0112 161.878 71.0867 153.585 71.0867 153.585C71.0125 151.66 70.3624 149.8 69.2203 148.247C75.2646 151.862 74.3762 158.873 74.3762 158.873H74.3763Z" fill="#7BF7FF"/>
</g>
<defs>
<clipPath id="clip0">
<rect width="615" height="535" fill="white"/>
</clipPath>
</defs>
</svg>
